{
    "asset" : {
        "generator" : "Khronos glTF Blender I/O v1.6.16",
        "version" : "2.0"
    },
    "scene" : 0,
    "scenes" : [
        {
            "name" : "Scene",
            "nodes" : [
                0,
                1,
                2
            ]
        }
    ],
    "nodes" : [
        {
            "mesh" : 0,
            "name" : "body_01",
            "scale" : [
                1,
                0.21381652355194092,
                2.510939598083496
            ]
        },
        {
            "mesh" : 1,
            "name" : "knob_01",
            "scale" : [
                0.18735022842884064,
                0.18735022842884064,
                0.18735022842884064
            ],
            "translation" : [
                -0.637029230594635,
                0.37158840894699097,
                -1.2995564937591553
            ]
        },
        {
            "mesh" : 2,
            "name" : "knob_02",
            "scale" : [
                0.18735022842884064,
                0.18735022842884064,
                0.18735022842884064
            ],
            "translation" : [
                -0.637029230594635,
                0.37158840894699097,
                -1.8525420427322388
            ]
        }
    ],
    "meshes" : [
        {
            "name" : "Cube.001",
            "primitives" : [
                {
                    "attributes" : {
                        "POSITION" : 0,
                        "NORMAL" : 1,
                        "TEXCOORD_0" : 2
                    },
                    "indices" : 3
                }
            ]
        },
        {
            "name" : "Cylinder",
            "primitives" : [
                {
                    "attributes" : {
                        "POSITION" : 4,
                        "NORMAL" : 5,
                        "TEXCOORD_0" : 6
                    },
                    "indices" : 7
                }
            ]
        },
        {
            "name" : "Cylinder.001",
            "primitives" : [
                {
                    "attributes" : {
                        "POSITION" : 8,
                        "NORMAL" : 9,
                        "TEXCOORD_0" : 10
                    },
                    "indices" : 7
                }
            ]
        }
    ],
    "accessors" : [
        {
            "bufferView" : 0,
            "componentType" : 5126,
            "count" : 968,
            "max" : [
                1,
                1,
                1
            ],
            "min" : [
                -1,
                -1,
                -1
            ],
            "type" : "VEC3"
        },
        {
            "bufferView" : 1,
            "componentType" : 5126,
            "count" : 968,
            "type" : "VEC3"
        },
        {
            "bufferView" : 2,
            "componentType" : 5126,
            "count" : 968,
            "type" : "VEC2"
        },
        {
            "bufferView" : 3,
            "componentType" : 5123,
            "count" : 1572,
            "type" : "SCALAR"
        },
        {
            "bufferView" : 4,
            "componentType" : 5126,
            "count" : 320,
            "max" : [
                1,
                1,
                1
            ],
            "min" : [
                -1,
                -1,
                -1
            ],
            "type" : "VEC3"
        },
        {
            "bufferView" : 5,
            "componentType" : 5126,
            "count" : 320,
            "type" : "VEC3"
        },
        {
            "bufferView" : 6,
            "componentType" : 5126,
            "count" : 320,
            "type" : "VEC2"
        },
        {
            "bufferView" : 7,
            "componentType" : 5123,
            "count" : 564,
            "type" : "SCALAR"
        },
        {
            "bufferView" : 8,
            "componentType" : 5126,
            "count" : 320,
            "max" : [
                1,
                1,
                1
            ],
            "min" : [
                -1,
                -1,
                -1
            ],
            "type" : "VEC3"
        },
        {
            "bufferView" : 9,
            "componentType" : 5126,
            "count" : 320,
            "type" : "VEC3"
        },
        {
            "bufferView" : 10,
            "componentType" : 5126,
            "count" : 320,
            "type" : "VEC2"
        }
    ],
    "bufferViews" : [
        {
            "buffer" : 0,
            "byteLength" : 11616,
            "byteOffset" : 0
        },
        {
            "buffer" : 0,
            "byteLength" : 11616,
            "byteOffset" : 11616
        },
        {
            "buffer" : 0,
            "byteLength" : 7744,
            "byteOffset" : 23232
        },
        {
            "buffer" : 0,
            "byteLength" : 3144,
            "byteOffset" : 30976
        },
        {
            "buffer" : 0,
            "byteLength" : 3840,
            "byteOffset" : 34120
        },
        {
            "buffer" : 0,
            "byteLength" : 3840,
            "byteOffset" : 37960
        },
        {
            "buffer" : 0,
            "byteLength" : 2560,
            "byteOffset" : 41800
        },
        {
            "buffer" : 0,
            "byteLength" : 1128,
            "byteOffset" : 44360
        },
        {
            "buffer" : 0,
            "byteLength" : 3840,
            "byteOffset" : 45488
        },
        {
            "buffer" : 0,
            "byteLength" : 3840,
            "byteOffset" : 49328
        },
        {
            "buffer" : 0,
            "byteLength" : 2560,
            "byteOffset" : 53168
        }
    ],
    "buffers" : [
        {
            "byteLength" : 55728,
            "uri" : "data:application/octet-stream;base64,"
        }
    ]
}
